<?xml version="1.0"?><svg width="1056" height="816" xmlns="http://www.w3.org/2000/svg">
 <title>Orange and Green Hat</title>
 <g>
  <title>Layer 1</title>
  <g externalResourcesRequired="false" id="svg_1">
   <path d="m140.376556,534.536011c16.397064,-51.185486 44.472885,-94.947937 69.097061,-142.263062c24.297943,-46.703339 67.131149,-81.230469 111.06398,-109.512726c42.291626,-27.239029 89.193909,-61.921509 141.373444,-62.841064c53.930695,-0.953247 104.263336,12.184174 152.637665,33.54982c32.525391,14.370865 59.171204,28.387192 88.351624,48.596756c24.701416,17.08316 43.841248,43.939728 61.768677,67.60202c18.53241,24.408264 28.841431,55.553589 39.812012,83.876678c9.117249,23.574707 18.62439,57.217133 19.669739,82.431091c-227.925659,-0.488464 -455.848511,-0.95105 -683.77417,-1.439514" id="path24536" stroke-miterlimit="4" stroke-width="5.481623" stroke="#000000" fill="#00007f"/>
   <path d="m547.203674,37.05154c-16.188477,1.31612 -30.750244,7.421608 -45.86496,12.211868c-14.965057,4.721573 -25.996246,10.7691 -37.540314,23.254772l-10.036591,15.623383c-28.652954,18.880165 -47.434631,51.005806 -43.408966,87.94532c5.92395,54.358124 51.998474,95.493011 107.676697,89.425171c0.543579,-0.059265 1.077271,-0.152191 1.620728,-0.211426c-0.973206,-0.75827 -1.941895,-1.493866 -2.889221,-2.255005c54.390747,1.825409 93.736694,-53.081039 88.086243,-104.928314c-2.01709,-18.509186 -9.424805,-35.577362 -20.365479,-49.751106c7.285828,0.407494 14.683899,0.200493 22.620544,-1.832253c-8.329651,-4.330627 -16.616394,-8.706078 -24.946045,-13.036774c12.753418,-3.14473 25.508545,-6.253487 38.264648,-9.372375c-12.827576,-2.583229 -28.618835,-1.182549 -41.788086,-4.016708c-7.029602,-1.510376 -15.546814,2.170769 -22.761475,3.03019c-1.946777,-1.129173 -4.036011,-1.970146 -6.060364,-2.959709c12.879089,-6.187401 25.811584,-12.346336 38.6875,-18.533352c1.865112,-0.910442 -1.747559,0.002029 -2.043579,-0.07048c-15.563293,-7.497391 -39.732727,4.331112 -55.600098,6.060337c-4.861023,0.529785 -10.705933,2.081329 -16.348755,3.38253c-4.74295,-0.243401 -9.494537,-0.531982 -14.375702,0c-4.506622,0.491119 -8.832916,1.629189 -13.177673,2.677811c14.211304,-12.444519 52.097931,-31.381329 60.250946,-36.643879z" id="path24538" stroke-miterlimit="4" stroke-width="5.481623" stroke="#000000" fill="#ff0000"/>
   <path d="m466.073883,421.695251l49.87558,-42.64624l56.302734,45.603027l54.735229,-46.892883l48.804443,47.187836l47.831665,-44.183319l44.25061,48.820343l18.632751,-19.260956c13.977539,32.337128 20.493835,50.779572 27.593811,84.420929l-335.646637,-9.864044c-21.802612,-5.858887 -294.636017,45.184692 -335.076538,52.533569c6.391815,-35.595398 21.577377,-67.421967 41.787979,-103.017365l51.837997,-50.25473l46.812958,41.451721l45.556671,-50.25473l44.479736,49.040985l53.256775,-43.971802c11.836243,14.215363 39.924744,44.106262 38.964233,41.287659z" id="path25782" stroke-miterlimit="4" stroke-width="4.834" stroke="#000000" fill-rule="evenodd" fill="#00bf00"/>
   <path d="m468.32196,475.367615l49.875488,-42.646271l56.302795,45.603027l54.735291,-46.892883l48.804382,47.187866l47.831726,-44.183319l44.25061,48.820343l18.632751,-19.260956c24.027466,29.824615 33.056335,45.754547 40.156189,79.395874l-348.209045,-4.838989c-21.802612,-5.858948 -298.404816,-12.602966 -338.845337,-5.254089c3.195908,-17.797668 14.271729,-40.998688 25.761978,-62.814941l26.076035,20.097717l45.556717,-52.767212l46.812973,41.451721l45.556702,-50.254761l44.479736,49.040985l53.256775,-43.971771c11.836212,14.215363 39.924744,44.106232 38.964233,41.287659z" id="path26533" stroke-miterlimit="4" stroke-width="4.834" stroke="#000000" fill-rule="evenodd" fill="#ffff00"/>
   <path d="m124.563583,533.640137c-25.764931,38.769775 -58.500656,88.802368 -47.736771,138.782776c5.154068,23.980408 28.43737,41.270508 49.928116,49.5625c4.86705,1.879272 24.610062,8.554443 28.089569,7.075195c15.24765,-6.454895 29.408417,-11.586487 45.390442,-15.868835c104.652695,-27.984802 212.35881,-25.788391 319.587692,-27.730713c56.308716,-1.002869 112.613708,2.52594 168.922241,4.404236c31.386047,1.032227 62.714172,2.254089 94.073242,3.760681c24.803833,1.199524 51.51178,-1.999207 76.000488,1.356201c49.138489,6.745667 11.078369,-122.582153 3.018372,-144.38623c-4.234314,-11.455994 -8.607117,-22.739807 -14.364014,-33.505981c-6.323975,-11.883118 -18.894226,-13.787231 -31.908325,-19.283691c-24.433899,-10.302338 -50.987061,-19.14267 -77.216614,-23.329895c-105.283142,-16.73526 -214.422607,-21.028015 -320.62793,-9.453705c-49.595337,5.404938 -99.600311,4.646942 -148.319122,17.132996c-25.098785,6.428375 -49.348694,13.916687 -73.484909,23.409454c-19.865555,7.822449 -59.660141,14.491821 -73.532829,31.640442" id="path313" stroke-miterlimit="4" stroke-width="5.481623" stroke="#000000" fill="#ff007f"/>
  </g>
 </g>
</svg>