<svg xmlns="http://www.w3.org/2000/svg" width="728.36" height="698.97" viewBox="0" enable-background="new 0 0 728.363 698.965"><path fill="#CD6799" d="M504.57 233.85h-29.26l-9.04-27.83c-.33-1.03-1.29-1.73-2.38-1.73s-2.04.7-2.38 1.73l-9.04 27.83h-29.27c-1.08 0-2.04.7-2.38 1.73-.33 1.03.03 2.16.91 2.8l23.68 17.2-9.04 27.83c-.33 1.03.03 2.16.91 2.8.44.32.95.48 1.47.48s1.03-.16 1.47-.48l23.68-17.2 23.67 17.2c.88.64 2.06.64 2.94 0 .88-.64 1.24-1.76.91-2.79l-9.04-27.83 23.67-17.2c.88-.64 1.24-1.76.91-2.79-.34-1.06-1.3-1.75-2.39-1.75z"/><path fill="#CD6799" d="M609.23 233.85h-29.26l-9.04-27.83c-.33-1.03-1.29-1.73-2.38-1.73s-2.04.7-2.38 1.73l-9.04 27.83h-29.26c-1.08 0-2.04.7-2.38 1.73-.33 1.03.03 2.16.91 2.8l23.67 17.2-9.04 27.83c-.33 1.03.03 2.16.91 2.8.88.64 2.06.64 2.94 0l23.67-17.2 23.68 17.2c.44.32.95.48 1.47.48s1.03-.16 1.47-.48c.88-.64 1.24-1.76.91-2.79l-9.04-27.83 23.68-17.2c.88-.64 1.24-1.76.91-2.79-.35-1.06-1.31-1.75-2.4-1.75z"/><path fill="#CD6799" d="M716.27 236.67c-.33-1.03-1.29-1.73-2.38-1.73h-29.26l-9.04-27.83c-.33-1.03-1.29-1.73-2.38-1.73s-2.04.7-2.38 1.73l-9.04 27.83h-29.26c-1.08 0-2.04.7-2.38 1.73-.33 1.03.03 2.16.91 2.8l23.67 17.2-9.04 27.83c-.33 1.03.03 2.16.91 2.8.88.64 2.06.64 2.94 0l23.68-17.2 23.67 17.2c.44.32.95.48 1.47.48s1.03-.16 1.47-.48c.88-.64 1.24-1.76.91-2.79l-9.04-27.83 23.67-17.2c.86-.65 1.23-1.78.9-2.81z"/><path fill="#CD6799" d="M710.68 359.9c-.78-.32-99.18-.21-99.18-.21-5.22.23-10.59.64-12.33 1.16-2.64.79-5.19 7.14-5.78 17-.6 9.85 3.5 11.15 4.39 11.31.58.1 102.65.2 104.98.04 2.75-.2 7.04-7.8 9.76-17.3 2.71-9.5-1.01-11.65-1.84-12z"/><path fill="#CD6799" d="M712.68 304.9c-.78-.33-11.45-.28-20.18-.41 0 0-264.14.16-265.96.29-2.75.2-7.04 7.8-9.75 17.3-2.72 9.49 1 11.65 1.83 11.99.69.29 283.81.28 286.14.12 2.75-.2 7.04-7.8 9.76-17.3 2.71-9.49-1.01-11.64-1.84-11.99z"/><path fill="#CD6799" d="M615.12 463.51c-15.2.69-28.73 4.02-40.57 8.9-.14-.14-.3-.27-.46-.38l-.34-5.98.34-6.14c.89-15.95 1.84-30.99 2.83-44.7.47-5.9 1.06-13.64 1.79-23.28.65-8.63 1.17-15.54 1.56-20.73l.53-6.96c.93-5.45 2.17-10.25 2.04-10.78-.2-.83-1.66-4.65-11.16-3.56-9.5 1.1-17.44 3.96-18.07 6.51-.63 2.55-1.71 8.31-2.17 14.16l.08.01-4.61 39.89c-.09 3.11-.55 7.03-1.39 11.66-.85 4.7-2.14 9.38-3.85 13.91-1.75 4.63-4.01 8.73-6.72 12.18-3.06 3.9-6.82 6.1-11.19 6.52-2.86.28-5.38-.24-7.49-1.52-1.93-1.17-3.55-2.8-4.83-4.83-1.18-1.89-2.1-4.08-2.72-6.51-.59-2.26-1.01-4.67-1.26-7.14-.47-4.62-.43-9.98.12-15.94l4.4-47.26c.19-1.98.41-3.89.67-5.72h-.02c.84-3.7 1.58-6.5 1.49-6.9-.19-.88-1.63-4.94-11.67-4.01-10.03.93-18.48 3.75-19.2 6.42-.73 2.67-2.02 8.71-2.64 14.87 0 0-3.87 38.02-3.66 57.34-7.4 1.69-14.29 4-20.67 6.77l.1.27c-.8.37-1.6.74-2.38 1.12-5.1-10.1-10.2-19.1-11.1-25.7-1-7.7-2.2-12.4-1-21.6 1.2-9.2 6.6-22.3 6.5-23.3-.1-1-1.2-5.7-12.2-5.8-11-.1-20.5 2.1-21.6 5-1.1 2.9-3.2 9.5-4.6 16.3-1.9 10-22 45.7-33.5 64.4-3.7-7.3-6.9-13.7-7.6-18.8-1-7.7-2.2-12.4-1-21.6 1.2-9.2 6.6-22.3 6.5-23.3-.1-1-1.2-5.7-12.2-5.8-11-.1-20.5 2.1-21.6 5-1.1 2.9-2.3 9.7-4.6 16.3-2.3 6.6-29 66.2-36 81.6-3.6 7.9-6.7 14.2-8.9 18.5 0 0-.1.3-.4.8-1.9 3.7-3 5.7-3 5.7v.1c-1.5 2.7-3.1 5.2-3.9 5.2-.6 0-1.7-7.2.2-17 4-20.7 13.5-52.9 13.4-54 0-.6 1.8-6.2-6.2-9.1-7.8-2.9-10.6 1.9-11.3 1.9-.7 0-1.2 1.7-1.2 1.7s8.7-36.2-16.6-36.2c-15.8 0-37.6 17.3-48.4 32.9-6.8 3.7-21.3 11.6-36.8 20.1-5.9 3.3-12 6.6-17.7 9.7l-1.2-1.3c-30.6-32.7-87.2-55.8-84.8-99.7.9-16 6.4-58 108.7-109 83.8-41.8 150.9-30.3 162.5-4.8 16.6 36.4-35.9 104-122.9 113.8-33.2 3.7-50.6-9.1-55-13.9-4.6-5-5.3-5.3-7-4.3-2.8 1.5-1 6 0 8.6 2.6 6.8 13.3 18.8 31.4 24.7 16 5.2 54.9 8.1 102-10.1 52.7-20.4 93.9-77.1 81.8-124.6-12.3-48.2-92.3-64.1-168-37.2-45 16-93.8 41.1-128.9 73.9-41.7 39-48.3 72.9-45.6 87.1 9.7 50.4 79.2 83.2 107 107.5-1.4.8-2.7 1.5-3.8 2.1-13.9 6.9-66.9 34.6-80.1 63.9-15 33.2 2.4 57 13.9 60.2 35.7 9.9 72.4-7.9 92.1-37.3 19.7-29.4 17.3-67.6 8.2-85.1-.1-.2-.2-.4-.4-.6l10.9-6.4c7.1-4.2 14.1-8.1 20.1-11.3-3.4 9.3-5.9 20.4-7.1 36.4-1.5 18.8 6.2 43.2 16.3 52.8 4.5 4.2 9.8 4.3 13.2 4.3 11.8 0 17.1-9.8 23-21.4 7.2-14.2 13.7-30.7 13.7-30.7s-8.1 44.6 13.9 44.6c8 0 16.1-10.4 19.7-15.7v.1s.2-.3.6-1c.8-1.3 1.3-2.1 1.3-2.1v-.2c3.2-5.6 10.4-18.3 21.1-39.4 13.8-27.2 27.1-61.2 27.1-61.2s1.2 8.3 5.3 22.1c2.4 8.1 7.4 17 11.4 25.6-3.2 4.5-5.2 7-5.2 7l.1.1c-2.6 3.4-5.4 7.1-8.5 10.7-10.9 13-23.9 27.9-25.7 32.2-2.1 5.1-1.6 8.8 2.4 11.8 2.9 2.2 8.1 2.5 13.4 2.2 9.8-.7 16.7-3.1 20.1-4.6 5.3-1.9 11.5-4.8 17.3-9.1 10.7-7.9 17.2-19.2 16.6-34.1-.3-8.2-3-16.4-6.3-24.1l2.9-4.2c16.9-24.7 30-51.8 30-51.8s1.2 8.3 5.3 22.1c2 7 6.1 14.6 9.7 22-15.9 12.9-25.7 27.9-29.2 37.7-6.3 18.2-1.4 26.4 7.9 28.3 4.2.9 10.2-1.1 14.6-3 5.6-1.8 12.2-4.9 18.5-9.5 10.7-7.9 21-18.9 20.4-33.8-.23-5.26-3.99-20.24-3.68-20.36.04-.59.04-1.18.02-1.76.05.53.09 1.06.1 1.59 5.57-2.06 11.79-3.7 18.64-4.77.77 3.19 1.86 6.12 3.27 8.76 2.28 4.27 5.13 7.83 8.45 10.6 3.32 2.76 7.06 4.79 11.12 6.03 4.06 1.24 8.19 1.67 12.29 1.27 4.7-.45 9.52-2.18 14.33-5.12 5-3.06 9.8-6.97 14.25-11.61l6.05-6.31-.94 28.08c-5.12 2.17-10.3 4.26-15.21 6.86-.18.1-.33.22-.46.34-17.72 9.17-60.33 33.24-71.74 58.57-14.3 31.65 2.29 54.34 13.25 57.38 34.03 9.44 69.02-7.53 87.79-35.56 9.44-14.08 13.54-30.27 14.2-45.02l.21-.96c.88-4.67 1.02-9.53 1.09-14.28.07-5.14-.18-10.24-.53-15.34l.29-5.73c12.73-4.67 28.59-7.29 48.29-5.84 49.14 3.64 60.06 32.93 58.73 45.49-1.32 12.56-11.31 19.77-14.61 22-3.3 2.23-4.4 2.98-4.03 4.47.5 2.18 2.15 2.02 5 1.5 3.98-.86 25.26-11.12 25.21-34.14.81-29.14-29.32-59.96-80.16-57.63zm-478.72 90.49c-15.8 17.2-37.8 23.7-47.3 18.2-10.2-5.9-6.2-31.3 13.2-49.5 11.8-11.1 27-21.4 37.1-27.7 2.3-1.4 5.7-3.4 9.8-5.9.7-.4 1.1-.6 1.1-.6l2.4-1.5c7.1 26 .3 48.9-16.3 67zm114.9-78.2c-5.5 13.4-17 47.7-24 45.8-6-1.6-9.7-27.6-1.2-53.3 4.3-12.9 13.4-28.3 18.7-34.3 8.6-9.6 18.1-12.8 20.4-8.9 3 5-10.4 42.3-13.9 50.7zm116.4 15.5c0 15.3-14.8 25.7-21.4 29.8-2.3 1.2-4.5 2-5.5 1.4-.7-.4 1-2 1-2s11.9-12.8 16.6-18.6c2.7-3.4 5.9-7.4 9.3-11.9v1.3zm74-16.4c-.1 19.4-13.9 26.6-22.2 29.5-1.7-1.2-1.4-5.2 4.3-17.7 2.2-4.9 7.4-13.1 16.3-21 1 3.2 1.7 6.3 1.6 9.2zm18.52-22.29l.01.04-.01-.04zm91.6 48c-.18 3.01-.27 5.99-.23 8.98-1.06 9.79-2.8 19.53-5.53 28.83-2.37 8.09-5.68 15.27-10.42 22.25-.65.95-1.38 1.84-2.15 2.69-14.54 13.24-32.65 17.95-40.89 13.18-9.72-5.62-5.91-29.84 12.58-47.19 10.76-10.13 24.48-19.54 34.08-25.6 1.16-.56 2.33-1.11 3.5-1.66 2.56-1.07 5.12-2.16 7.69-3.21.64-.26 1.17-.62 1.63-1.02-.12.92-.21 1.83-.26 2.75z"/></svg>